<svg width="82" height="78" viewBox="0 0 82 78" fill="none" xmlns="http://www.w3.org/2000/svg">
<g clip-path="url(#clip0_1158_1333)">
<path d="M38.6627 63.4377C44.0324 58.083 44.0324 49.4014 38.6627 44.0467C33.2929 38.692 24.5868 38.692 19.217 44.0467C13.8472 49.4014 13.8472 58.083 19.217 63.4377C24.5868 68.7924 33.2929 68.7924 38.6627 63.4377Z" stroke="#59F9FF" stroke-width="3" stroke-linecap="round" stroke-linejoin="round"/>
<path d="M50.7394 26.6739C50.0981 26.7863 49.8526 27.5482 50.281 28.0378C51.5661 29.4991 51.9919 31.2152 51.2003 32.3118L51.1678 32.3668C50.1532 33.7607 47.5304 33.6108 45.316 32.0146L41.1351 29.022C40.9998 28.9221 40.867 28.8196 40.7393 28.7147C40.5464 28.5573 40.3034 28.4799 40.0604 28.5224L25.2356 31.0953C13.5696 32.9938 5.39315 43.328 5.95177 54.8338C6.6131 68.278 19.0381 78.4574 32.3875 76.424C42.1371 74.9452 48.2644 67.2239 51.4508 58.5233C53.004 54.2842 56.2129 43.3405 75.9802 36.4885C77.1701 36.0763 78.2748 35.4393 79.094 34.4801L79.129 34.4401C80.364 32.9838 80.9026 31.0653 80.597 29.1918L79.8505 24.6255C79.5874 23.0168 78.0519 21.9302 76.4336 22.2099L50.7394 26.6689V26.6739Z" stroke="#59F9FF" stroke-width="3" stroke-linecap="round" stroke-linejoin="round"/>
<path d="M5.93958 53.3348L1.87891 51.9908C1.45807 51.8534 1.23011 51.3114 1.35035 50.7893L2.84586 44.4044C2.97362 43.8723 3.41701 43.4951 3.8579 43.5551L8.04382 44.1446" stroke="#59F9FF" stroke-width="3" stroke-linecap="round" stroke-linejoin="round"/>
<path d="M31.7561 57.1312C33.6323 55.5813 33.8932 52.8082 32.3389 50.9374C30.7846 49.0665 28.0037 48.8063 26.1275 50.3562C24.2514 51.9061 23.9905 54.6792 25.5448 56.5501C27.099 58.421 29.88 58.6812 31.7561 57.1312Z" fill="#59F9FF"/>
<path d="M35.8071 1.31396L41.7541 20.3837" stroke="#59F9FF" stroke-width="3" stroke-linecap="round" stroke-linejoin="round"/>
<path d="M25.604 14.3809L31.6913 23.601" stroke="#59F9FF" stroke-width="3" stroke-linecap="round" stroke-linejoin="round"/>
<path d="M51.6016 7.56396L51.8145 17.1638" stroke="#59F9FF" stroke-width="3" stroke-linecap="round" stroke-linejoin="round"/>
</g>
<defs>
<clipPath id="clip0_1158_1333">
<rect width="82" height="78" fill="white"/>
</clipPath>
</defs>
</svg>
