<svg width="16" height="16" viewBox="0 0 16 16" fill="none" xmlns="http://www.w3.org/2000/svg">
<path fill-rule="evenodd" clip-rule="evenodd" d="M6.90909 1.5C3.92172 1.5 1.5 3.92172 1.5 6.90906C1.5 9.89641 3.92172 12.3181 6.90906 12.3181C8.22269 12.3181 9.42695 11.8499 10.364 11.0711L13.6464 14.3536L13.6547 14.3616C13.8505 14.5488 14.161 14.5461 14.3536 14.3536C14.5488 14.1583 14.5488 13.8417 14.3536 13.6464L11.0711 10.364C11.8499 9.42695 12.3181 8.22269 12.3181 6.90906C12.3179 3.92178 9.89634 1.50019 6.90909 1.5ZM6.90903 2.5C9.34404 2.50015 11.318 4.47408 11.3181 6.90909C11.3181 9.34412 9.34412 11.3181 6.90906 11.3181C4.474 11.3181 2.5 9.34412 2.5 6.90906C2.5 4.474 4.474 2.5 6.90903 2.5Z" fill="#222428"/>
</svg>
